<?xml version="1.0" encoding="UTF-8"?>
<svg  xmlns="http://www.w3.org/2000/svg" viewBox="0 0 325.41 238.85">
    <path fill="#000000" stroke-width="0" d="m224.93,16.8c-7.23,13.97-64.87,137.83-64.87,191.64,0,15.1,4.56,24.73,16.02,24.73,12.88,0,25.29-13.03,30.16-36.06.47-2.08,2.2-3.4,3.77-3.4,1.26,0,2.36.94,2.36,3.21,0,12.08-13.04,41.92-42.57,41.92-19.32,0-26.55-11.71-26.55-29.83,0-46.82,48.54-136.32,62.36-176.54,0-1.13-.31-2.45-1.41-2.45-8.64,0-63.93,86.48-83.56,114.04-5.81,8.12-18.22,28.32-22.46,35.31-3.77,6.23-5.5,6.8-9.9,6.8-4.87,0-9.11-.57-9.11-4.53,0-1.7.79-3.4.79-3.4,63.93-103.85,85.92-139.91,86.55-141.23,0,0,0-.57-.31-.57-.47,0-.47.19-.94.57-17.91,19.45-52.78,46.83-99.9,46.83C23.56,83.83,0,61.55,0,41.54,0,25.49,15.24,10.95,48.54,10.95c26.55,0,55.13,12.08,55.13,27.76,0,5.48-7.07,7.36-7.07,7.36-.63-18.88-25.92-29.27-44.14-29.27-22.78,0-34.71,12.27-34.71,25.68,0,16.24,17.44,34.17,55.13,34.17,49.32,0,91.73-35.69,107.28-66.46.31-.94.94-1.32,1.57-1.32,1.26,0,2.83,1.51,2.83,3.78,0,.76-.16,1.51-.47,2.27-26.07,47.58-50.73,99.31-60.16,115.55.16,0,1.1,0,2.04-1.13,35.18-52.3,67.7-100.07,87.18-115.93,1.89-1.51,5.66-3.21,8.8-3.21,2.36,0,4.08.76,4.08,3.02,0,.94-.31,2.08-1.1,3.59Z"/>
    <path fill="#000000" stroke-width="0" d="m243.57,143.87c-3.3,0-4.71-2.64-4.71-5.48,0-3.02,1.73-6.23,4.4-6.23,1.1,0,6.6,1.7,9.9,1.7,33.61,0,65.81-63.82,65.81-101.58,0-15.86-5.65-27-19.32-27-40.84,0-58.27,116.69-100.21,170.12,9.74,1.51,19.63,2.83,28.74,2.83,11.62,0,27.65-2.64,33.61-12.08.47-.57.79-.75,1.1-.75.63,0,1.1.75,1.1,1.89,0,13.41-14.92,23.98-28.75,23.98-19.63,0-33.14-3.02-44.14-6.23-10.52,10.2-22.46,16.62-36.6,16.62-16.96,0-25.92-8.5-25.92-16.99s8.17-16.05,25.29-16.05c8.48,0,20.42,2.08,33.3,4.53C229.44,124.05,245.77,0,305.46,0c13.98,0,19.95,11.52,19.95,28.13,0,41.92-38.17,115.74-81.84,115.74Zm-92.83,31.72c-11,0-16.65,4.72-16.65,9.25s5.03,8.31,15.86,8.31,20.89-4.34,29.53-11.89c-9.27-3.21-17.91-5.67-28.74-5.67Z"/>
</svg>